<?xml version="1.0" encoding="UTF-8" standalone="no"?>
<!-- Created with Inkscape (http://www.inkscape.org/) -->

<svg
   xmlns:dc="http://purl.org/dc/elements/1.1/"
   xmlns:cc="http://creativecommons.org/ns#"
   xmlns:rdf="http://www.w3.org/1999/02/22-rdf-syntax-ns#"
   xmlns:svg="http://www.w3.org/2000/svg"
   xmlns="http://www.w3.org/2000/svg"
   xmlns:sodipodi="http://sodipodi.sourceforge.net/DTD/sodipodi-0.dtd"
   xmlns:inkscape="http://www.inkscape.org/namespaces/inkscape"
   id="svg3004"
   version="1.1"
   inkscape:version="0.48.0 r9654"
   width="549.125"
   height="489.26105"
   xml:space="preserve"
   sodipodi:docname="routeType4.svg"><metadata
     id="metadata3010"><rdf:RDF><cc:Work
         rdf:about=""><dc:format>image/svg+xml</dc:format><dc:type
           rdf:resource="http://purl.org/dc/dcmitype/StillImage" /><dc:title></dc:title></cc:Work></rdf:RDF></metadata><defs
     id="defs3008" /><sodipodi:namedview
     pagecolor="#ffffff"
     bordercolor="#666666"
     borderopacity="1"
     objecttolerance="10"
     gridtolerance="10"
     guidetolerance="10"
     inkscape:pageopacity="0"
     inkscape:pageshadow="2"
     inkscape:window-width="640"
     inkscape:window-height="480"
     id="namedview3006"
     showgrid="false"
     inkscape:zoom="0.2783848"
     inkscape:cx="646.21875"
     inkscape:cy="341.9333"
     inkscape:window-x="0"
     inkscape:window-y="24"
     inkscape:window-maximized="0"
     inkscape:current-layer="g3012"
     fit-margin-top="0"
     fit-margin-left="0"
     fit-margin-right="0"
     fit-margin-bottom="0" /><g
     id="g3012"
     inkscape:groupmode="layer"
     inkscape:label="ink_ext_XXXXXX"
     transform="matrix(1.25,0,0,-1.25,274.34375,111.40625)"><g
       id="g3014"
       transform="scale(0.1,0.1)"><path
         d="m 305.25,-2939.75 c 177.25,89.75 336.852,84.61 522,-12 184.93,-97 369.97,-97 588,14 218.46,111.66 401.67,55.4 503,1 89.25,-48.25 151.75,-73.25 280,-83 l 0,435 c -163.25,3.67 -266,63 -266,63 -377.25,205.67 -541.53,-45.14 -745,-45 l 0,1004 314,721 c 47.07,111.531 -0.38,213.18 -114,262 l -190,77 0,624 -366,0 0,329 -512,0 0,441 -636,0 0,-441 -512,0 0,-329 -365,0 0,-624 -190,-77 c -113.92,-48.82 -161.37,-150.469 -114,-262 l 313,-721 0,-1004 c -202.64,-0.14 -375.25,246.75 -745,41 l 0,0 c 0,0 -105.25,-59.25 -265,-63 l 0,-431 c 124.75,9.75 184.75,29.75 280,83 100.22,56.02 284.24,110.66 502,-1 218.74,-111 403.77,-111 589,-14 184.859,96.61 346.172,101.46 519,14 218.5898,-111 389.75,-112.25 610,-2"
         style="fill:#000000;fill-opacity:1;fill-rule:nonzero;stroke:none"
         id="path3016"
         inkscape:connector-curvature="0" /><path
         d="m 1.25,189.25 -559,0 0,-324 -366,0 0,-252 925,382 926,-382 0,252 -366,0 0,324 -560,0"
         style="fill:#ffffff;fill-opacity:1;fill-rule:nonzero;stroke:none"
         id="path3018"
         inkscape:connector-curvature="0" /></g></g></svg>